<?xml version="1.0" encoding="UTF-8" standalone="no"?>
<svg
   xmlns:dc="http://purl.org/dc/elements/1.1/"
   xmlns:cc="http://creativecommons.org/ns#"
   xmlns:rdf="http://www.w3.org/1999/02/22-rdf-syntax-ns#"
   xmlns:svg="http://www.w3.org/2000/svg"
   xmlns="http://www.w3.org/2000/svg"
   xmlns:sodipodi="http://sodipodi.sourceforge.net/DTD/sodipodi-0.dtd"
   xmlns:inkscape="http://www.inkscape.org/namespaces/inkscape"
   height="512pt"
   viewBox="0 0 512 512"
   width="512pt"
   version="1.1"
   id="svg3766"
   sodipodi:docname="clock.svg"
   inkscape:version="0.92.4 (5da689c313, 2019-01-14)">
  <metadata
     id="metadata3772">
    <rdf:RDF>
      <cc:Work
         rdf:about="">
        <dc:format>image/svg+xml</dc:format>
        <dc:type
           rdf:resource="http://purl.org/dc/dcmitype/StillImage" />
      </cc:Work>
    </rdf:RDF>
  </metadata>
  <defs
     id="defs3770" />
  <sodipodi:namedview
     pagecolor="#ffffff"
     bordercolor="#666666"
     borderopacity="1"
     objecttolerance="10"
     gridtolerance="10"
     guidetolerance="10"
     inkscape:pageopacity="0"
     inkscape:pageshadow="2"
     inkscape:window-width="1920"
     inkscape:window-height="1017"
     id="namedview3768"
     showgrid="false"
     inkscape:zoom="1.2421875"
     inkscape:cx="210.51572"
     inkscape:cy="341.33333"
     inkscape:window-x="-8"
     inkscape:window-y="-8"
     inkscape:window-maximized="1"
     inkscape:current-layer="svg3766" />
  <path
     d="m256 0c-141.152344 0-256 114.847656-256 256s114.847656 256 256 256 256-114.847656 256-256-114.847656-256-256-256zm0 490.667969c-129.398438 0-234.667969-105.269531-234.667969-234.667969s105.269531-234.667969 234.667969-234.667969 234.667969 105.269531 234.667969 234.667969-105.269531 234.667969-234.667969 234.667969zm0 0"
     id="path3760"
     style="fill:#657b83;fill-opacity:1" />
  <path
     d="m458.65625 322.835938c7.082031-21.503907 10.675781-43.988282 10.675781-66.835938 0-117.632812-95.699219-213.332031-213.332031-213.332031s-213.332031 95.699219-213.332031 213.332031 95.699219 213.332031 213.332031 213.332031c82.441406 0 158.324219-48.265625 193.300781-122.964843l-19.328125-9.042969c-8.0625 17.226562-18.570312 32.851562-30.941406 46.621093l-14.816406-14.804687-15.085938 15.082031 14.742188 14.730469c-26.816406 23.894531-60.019532 40.109375-95.871094 46.230469v-18.515625h-21.332031v20.949219c-3.542969.191406-7.09375.382812-10.667969.382812-3.605469 0-7.113281-.339844-10.667969-.542969v-20.789062h-21.332031v18.441406c-36.457031-6.15625-69.375-22.570313-95.796875-46.230469l14.667969-14.664062-15.085938-15.085938-14.664062 14.667969c-28.203125-31.5-46.089844-72.246094-48.578125-117.128906h20.789062v-21.335938h-20.789062c2.488281-44.882812 20.375-85.628906 48.578125-117.128906l14.664062 14.667969 15.085938-15.085938-14.667969-14.664062c26.421875-23.660156 59.339844-40.074219 95.796875-46.230469v18.441406h21.332031v-20.789062c3.554688-.203125 7.0625-.542969 10.667969-.542969s7.113281.339844 10.667969.542969v20.789062h21.332031v-18.441406c36.457031 6.15625 69.375 22.570313 95.796875 46.230469l-14.667969 14.664062 15.085938 15.085938 14.664062-14.667969c28.203125 31.5 46.089844 72.246094 48.578125 117.128906h-20.789062v21.335938h20.917969c-.929688 16.894531-3.925782 33.503906-9.195313 49.480469zm0 0"
     id="path3762"
     style="fill:#657b83;fill-opacity:1" />
  <path
     d="m355.125 141.792969-99.125 99.125-77.792969-77.792969-15.082031 15.082031 77.792969 77.792969-13.792969 13.792969 15.082031 15.082031 13.792969-13.792969 13.792969 13.792969 15.082031-15.082031-13.792969-13.792969 99.125-99.125zm0 0"
     id="path3764"
     style="fill:#657b83;fill-opacity:1" />
</svg>
