<?xml version="1.0" encoding="UTF-8" standalone="no"?>
<!-- Generator: Adobe Illustrator 19.0.0, SVG Export Plug-In . SVG Version: 6.00 Build 0)  -->

<svg
   xmlns:dc="http://purl.org/dc/elements/1.1/"
   xmlns:cc="http://creativecommons.org/ns#"
   xmlns:rdf="http://www.w3.org/1999/02/22-rdf-syntax-ns#"
   xmlns:svg="http://www.w3.org/2000/svg"
   xmlns="http://www.w3.org/2000/svg"
   xmlns:sodipodi="http://sodipodi.sourceforge.net/DTD/sodipodi-0.dtd"
   xmlns:inkscape="http://www.inkscape.org/namespaces/inkscape"
   version="1.1"
   id="Capa_1"
   x="0px"
   y="0px"
   viewBox="0 0 512 512"
   style="enable-background:new 0 0 512 512;"
   xml:space="preserve"
   sodipodi:docname="menu-item-playlist.svg"
   inkscape:version="0.92.4 (5da689c313, 2019-01-14)"><metadata
   id="metadata61"><rdf:RDF><cc:Work
       rdf:about=""><dc:format>image/svg+xml</dc:format><dc:type
         rdf:resource="http://purl.org/dc/dcmitype/StillImage" /><dc:title></dc:title></cc:Work></rdf:RDF></metadata><defs
   id="defs59" /><sodipodi:namedview
   pagecolor="#ffffff"
   bordercolor="#666666"
   borderopacity="1"
   objecttolerance="10"
   gridtolerance="10"
   guidetolerance="10"
   inkscape:pageopacity="0"
   inkscape:pageshadow="2"
   inkscape:window-width="1920"
   inkscape:window-height="1017"
   id="namedview57"
   showgrid="false"
   inkscape:zoom="1.2"
   inkscape:cx="256"
   inkscape:cy="256"
   inkscape:window-x="-8"
   inkscape:window-y="-8"
   inkscape:window-maximized="1"
   inkscape:current-layer="Capa_1" />



<g
   id="g885"><g
     style="fill:#586e75;fill-opacity:1"
     id="g6">
	<g
   style="fill:#586e75;fill-opacity:1"
   id="g4">
		<path
   style="fill:#586e75;fill-opacity:1"
   id="path2"
   d="M340.636,307.787l-120.5-80.334c-4.602-3.069-10.521-3.355-15.398-0.745c-4.877,2.61-7.922,7.693-7.922,13.226v160.667    c0,5.532,3.045,10.615,7.922,13.225c2.218,1.186,4.65,1.774,7.077,1.774c2.91,0,5.812-0.846,8.321-2.52l120.5-80.333    c4.173-2.781,6.68-7.465,6.68-12.48S344.809,310.569,340.636,307.787z M226.816,372.574V267.962l78.458,52.306L226.816,372.574z" />
	</g>
</g><g
     transform="matrix(0.99740259,0,0,0.9974026,0.66493622,0.66493395)"
     style="fill:#586e75;fill-opacity:1;stroke:#000000;stroke-width:1.33333337;stroke-miterlimit:4;stroke-dasharray:none;stroke-opacity:1"
     id="g12">
	<g
   style="fill:#586e75;fill-opacity:1;stroke:#000000;stroke-width:1.33333337;stroke-miterlimit:4;stroke-dasharray:none;stroke-opacity:1"
   id="g10">
		<path
   inkscape:connector-curvature="0"
   style="fill:#586e75;fill-opacity:1;stroke:#000000;stroke-width:1.33333337;stroke-miterlimit:4;stroke-dasharray:none;stroke-opacity:1"
   id="path8"
   d="M 497,128.533 H 15 c -8.284,0 -15,6.716 -15,15 V 497 c 0,8.284 6.716,15 15,15 h 482 c 8.284,0 15,-6.716 15,-15 V 143.533 c 0,-8.284 -6.716,-15 -15,-15 z M 482,482 H 30 V 158.533 h 452 z" />
	</g>
</g><g
     transform="matrix(0.99740259,0,0,0.9974026,0.66493622,10.664934)"
     style="fill:#586e75;fill-opacity:1;stroke:#000000;stroke-width:1.33333337;stroke-miterlimit:4;stroke-dasharray:none;stroke-opacity:1"
     id="g18">
	<g
   style="fill:#586e75;fill-opacity:1;stroke:#000000;stroke-width:1.33333337;stroke-miterlimit:4;stroke-dasharray:none;stroke-opacity:1"
   id="g16">
		<path
   inkscape:connector-curvature="0"
   style="fill:#586e75;fill-opacity:1;stroke:#000000;stroke-width:1.33333337;stroke-miterlimit:4;stroke-dasharray:none;stroke-opacity:1"
   id="path14"
   d="m 448.801,64.268 h -385.6 c -8.284,0 -15,6.716 -15,15 0,8.284 6.716,15 15,15 h 385.6 c 8.284,0 15,-6.716 15,-15 0,-8.284 -6.716,-15 -15,-15 z" />
	</g>
</g><g
     transform="matrix(0.99740259,0,0,0.9974026,0.66493622,18.664934)"
     style="stroke:#000000;stroke-width:1.33333337;stroke-miterlimit:4;stroke-dasharray:none;stroke-opacity:1"
     id="g24">
	<g
   style="stroke:#000000;stroke-width:1.33333337;stroke-miterlimit:4;stroke-dasharray:none;stroke-opacity:1"
   id="g22">
		<path
   inkscape:connector-curvature="0"
   style="fill:#586e75;fill-opacity:1;stroke:#000000;stroke-width:1.33333337;stroke-miterlimit:4;stroke-dasharray:none;stroke-opacity:1"
   id="path20"
   d="M 400.6,0 H 111.4 c -8.284,0 -15,6.716 -15,15 0,8.284 6.716,15 15,15 h 289.2 c 8.284,0 15,-6.716 15,-15 0,-8.284 -6.716,-15 -15,-15 z" />
	</g>
</g></g>
<g
   id="g26">
</g>
<g
   id="g28">
</g>
<g
   id="g30">
</g>
<g
   id="g32">
</g>
<g
   id="g34">
</g>
<g
   id="g36">
</g>
<g
   id="g38">
</g>
<g
   id="g40">
</g>
<g
   id="g42">
</g>
<g
   id="g44">
</g>
<g
   id="g46">
</g>
<g
   id="g48">
</g>
<g
   id="g50">
</g>
<g
   id="g52">
</g>
<g
   id="g54">
</g>
</svg>