<?xml version="1.0" encoding="UTF-8" standalone="no"?>
<!-- Generator: Adobe Illustrator 19.0.0, SVG Export Plug-In . SVG Version: 6.00 Build 0)  -->

<svg
   xmlns:osb="http://www.openswatchbook.org/uri/2009/osb"
   xmlns:dc="http://purl.org/dc/elements/1.1/"
   xmlns:cc="http://creativecommons.org/ns#"
   xmlns:rdf="http://www.w3.org/1999/02/22-rdf-syntax-ns#"
   xmlns:svg="http://www.w3.org/2000/svg"
   xmlns="http://www.w3.org/2000/svg"
   xmlns:sodipodi="http://sodipodi.sourceforge.net/DTD/sodipodi-0.dtd"
   xmlns:inkscape="http://www.inkscape.org/namespaces/inkscape"
   version="1.1"
   id="Capa_1"
   x="0px"
   y="0px"
   viewBox="0 0 511.99999 511.99999"
   xml:space="preserve"
   sodipodi:docname="menu-item-control.svg"
   inkscape:version="0.92.4 (5da689c313, 2019-01-14)"
   width="512"
   height="512"><metadata
   id="metadata15"><rdf:RDF><cc:Work
       rdf:about=""><dc:format>image/svg+xml</dc:format><dc:type
         rdf:resource="http://purl.org/dc/dcmitype/StillImage" /><dc:title></dc:title></cc:Work></rdf:RDF></metadata><defs
   id="defs13"><linearGradient
   id="linearGradient2285"
   osb:paint="solid"><stop
     style="stop-color:#000000;stop-opacity:1;"
     offset="0"
     id="stop2283" /></linearGradient>
	
	
	
</defs><sodipodi:namedview
   pagecolor="#ffffff"
   bordercolor="#666666"
   borderopacity="1"
   objecttolerance="10"
   gridtolerance="10"
   guidetolerance="10"
   inkscape:pageopacity="0"
   inkscape:pageshadow="2"
   inkscape:window-width="1920"
   inkscape:window-height="1017"
   id="namedview11"
   showgrid="false"
   inkscape:zoom="1.8"
   inkscape:cx="226.16407"
   inkscape:cy="321.48718"
   inkscape:window-x="-8"
   inkscape:window-y="-8"
   inkscape:window-maximized="1"
   inkscape:current-layer="Capa_1" />
<g
   id="g2305"><path
     d="m 279.53576,20.195233 c -9.60523,-5.759616 -20.97207,-5.571802 -30.40999,0.459099 -0.45271,0.281721 -0.88573,0.615611 -1.27939,0.97037 L 114.49511,141.23063 H 9.8414224 C 4.3991158,141.23063 0,145.89467 0,151.66472 v 198.24763 c 0,2.77547 1.0333494,5.42572 2.8835368,7.3769 1.8501874,1.95117 4.3400672,3.05719 6.9578856,3.05719 L 114.25891,360.29427 247.5413,490.0943 c 0.49207,0.47996 1.02351,0.89733 1.58447,1.25209 4.84198,3.09892 10.20555,4.6536 15.56913,4.6536 5.08801,-0.0104 10.16619,-1.39817 14.84086,-4.1945 9.83158,-5.88483 15.70691,-16.63194 15.70691,-28.74591 V 48.951574 c 0,-12.113974 -5.87533,-22.861083 -15.70691,-28.756341 z m -3.97593,442.864347 c 0,4.49709 -2.13559,8.45161 -5.69819,10.5906 -1.52542,0.90776 -5.3931,2.66069 -9.84142,0.27128 L 127.93849,345.27962 v -47.5377 c 0,-5.77005 -4.39911,-10.43409 -9.84142,-10.43409 -5.44231,0 -9.84142,4.66404 -9.84142,10.43409 v 41.69461 l -88.572805,0.0417 V 162.0988 h 88.572805 v 41.73635 c 0,5.77005 4.39911,10.43408 9.84142,10.43408 5.44231,0 9.84142,-4.66403 9.84142,-10.43408 V 156.50613 L 259.86276,38.183597 c 4.53689,-2.525049 8.46362,-0.730386 9.99888,0.187813 3.5626,2.138988 5.69819,6.093507 5.69819,10.580164 z"
     id="path2"
     style="fill:#586e75;fill-opacity:1;stroke:#586e75;stroke-width:6.66666667;stroke-linecap:butt;stroke-linejoin:round;stroke-miterlimit:4;stroke-dasharray:none;stroke-opacity:1;paint-order:normal"
     inkscape:connector-curvature="0" /><path
     d="m 375.81766,58.310949 c -5.14706,-1.846834 -10.73699,1.074711 -12.48876,6.531738 -1.74193,5.446592 1.01367,11.383587 6.16073,13.240855 69.88394,25.156578 116.83737,94.564118 116.83737,172.715428 0,78.07826 -46.86486,147.49624 -116.61102,172.72586 -5.13722,1.85726 -7.89282,7.78383 -6.1312,13.25129 1.39748,4.33014 5.21595,7.06387 9.30998,7.06387 1.05303,0 2.12575,-0.17738 3.17878,-0.56344 C 453.78141,415.17756 506,337.82968 506,250.8094 506.00984,163.69522 453.69284,86.347338 375.81766,58.310949 Z"
     id="path4"
     style="fill:#586e75;fill-opacity:1;stroke:#586e75;stroke-width:6.66666667;stroke-linecap:butt;stroke-linejoin:round;stroke-miterlimit:4;stroke-dasharray:none;stroke-opacity:1;paint-order:normal"
     inkscape:connector-curvature="0" /><path
     d="m 423.43704,250.78853 c 0,-62.31236 -39.45426,-117.92604 -95.94403,-135.24662 -5.24547,-1.57555 -10.6681,1.58598 -12.18368,7.13692 -1.50574,5.53006 1.4959,11.32098 6.73154,12.91739 48.11471,14.74337 81.72317,62.11412 81.72317,115.19231 0,53.0782 -33.60846,100.44895 -81.72317,115.19231 -5.2258,1.59642 -8.23728,7.38734 -6.73154,12.9174 1.24986,4.57013 5.17659,7.54385 9.45761,7.54385 0.90541,0 1.82066,-0.13565 2.72607,-0.40693 56.49961,-17.32059 95.94403,-72.93427 95.94403,-135.24663 z"
     id="path6"
     style="fill:#586e75;fill-opacity:1;stroke:#586e75;stroke-width:6.66666651;stroke-linecap:butt;stroke-linejoin:round;stroke-miterlimit:4;stroke-dasharray:none;stroke-opacity:1;paint-order:normal"
     inkscape:connector-curvature="0" /></g>
</svg>