<?xml version="1.0" encoding="UTF-8" standalone="no"?>
<!-- Generator: Adobe Illustrator 19.0.0, SVG Export Plug-In . SVG Version: 6.00 Build 0)  -->

<svg
   xmlns:dc="http://purl.org/dc/elements/1.1/"
   xmlns:cc="http://creativecommons.org/ns#"
   xmlns:rdf="http://www.w3.org/1999/02/22-rdf-syntax-ns#"
   xmlns:svg="http://www.w3.org/2000/svg"
   xmlns="http://www.w3.org/2000/svg"
   xmlns:sodipodi="http://sodipodi.sourceforge.net/DTD/sodipodi-0.dtd"
   xmlns:inkscape="http://www.inkscape.org/namespaces/inkscape"
   version="1.1"
   id="Capa_1"
   x="0px"
   y="0px"
   viewBox="0 0 512.00001 512.00001"
   xml:space="preserve"
   sodipodi:docname="menu-item-lighting.svg"
   inkscape:version="0.92.4 (5da689c313, 2019-01-14)"
   width="512"
   height="512"><metadata
   id="metadata3894"><rdf:RDF><cc:Work
       rdf:about=""><dc:format>image/svg+xml</dc:format><dc:type
         rdf:resource="http://purl.org/dc/dcmitype/StillImage" /><dc:title></dc:title></cc:Work></rdf:RDF></metadata><defs
   id="defs3892">
	

		
	
			
			
			
			
			
			
			
			
			
		</defs><sodipodi:namedview
   pagecolor="#ffffff"
   bordercolor="#666666"
   borderopacity="1"
   objecttolerance="10"
   gridtolerance="10"
   guidetolerance="10"
   inkscape:pageopacity="0"
   inkscape:pageshadow="2"
   inkscape:window-width="1920"
   inkscape:window-height="1017"
   id="namedview3890"
   showgrid="true"
   inkscape:zoom="1.2"
   inkscape:cx="227.25864"
   inkscape:cy="216.2"
   inkscape:window-x="-8"
   inkscape:window-y="-8"
   inkscape:window-maximized="1"
   inkscape:current-layer="Capa_1" />
<g
   id="g3972"
   style="fill:#586e75;fill-opacity:1;stroke:#586e75;stroke-opacity:1;stroke-width:4.38863646;stroke-miterlimit:4;stroke-dasharray:none"
   transform="matrix(1.528777,0,0,1.509434,-75.024555,-140.67925)"><path
     style="fill:#586e75;fill-opacity:1;stroke:#586e75;stroke-opacity:1;stroke-width:4.38863646;stroke-miterlimit:4;stroke-dasharray:none"
     d="m 216.529,93.2 c -61.2,0 -111.2,50 -111.2,111.2 0,32 14,62.8 37.6,83.6 17.6,17.6 16,55.2 15.6,55.6 0,2 0.4,3.6 2,5.2 1.2,1.2 3.2,2 4.8,2 h 102 c 2,0 3.6,-0.8 4.8,-2 1.2,-1.2 2,-3.2 2,-5.2 0,-0.4 -2,-38 15.6,-55.6 0.4,-0.4 0.8,-0.8 1.2,-1.2 23.2,-21.2 36.8,-51.2 36.8,-82.4 0,-61.2 -50,-111.2 -111.2,-111.2 z m 64,184.4 c -0.4,0.4 -1.2,1.2 -1.2,1.6 -15.6,16.8 -18.4,44.4 -18.8,57.6 h -88.4 c -0.4,-13.2 -3.2,-42 -20,-59.2 -21.2,-18.4 -33.6,-45.2 -33.6,-73.6 0,-54 43.6,-97.6 97.6,-97.6 54,0 97.6,43.6 97.6,97.6 0,28.4 -12,55.2 -33.2,73.6 z"
     id="path3835"
     inkscape:connector-curvature="0" /><path
     style="fill:#586e75;fill-opacity:1;stroke:#586e75;stroke-opacity:1;stroke-width:4.38863646;stroke-miterlimit:4;stroke-dasharray:none"
     d="m 216.129,121.6 c -3.6,0 -6.8,3.2 -6.8,6.8 0,3.6 3.2,6.8 6.8,6.8 40.4,0 72.8,32.8 72.8,72.8 0,3.6 3.2,6.8 6.8,6.8 3.6,0 6.8,-3.2 6.8,-6.8 0.4,-47.6 -38.4,-86.4 -86.4,-86.4 z"
     id="path3837"
     inkscape:connector-curvature="0" /><path
     style="fill:#586e75;fill-opacity:1;stroke:#586e75;stroke-opacity:1;stroke-width:4.38863646;stroke-miterlimit:4;stroke-dasharray:none"
     d="m 260.529,358.4 h -88.8 c -9.2,0 -16.8,7.6 -16.8,16.8 0,9.2 7.6,16.8 16.8,16.8 h 88.4 c 9.6,-0.4 17.2,-7.6 17.2,-16.8 0,-9.2 -7.6,-16.8 -16.8,-16.8 z m 0,19.6 h -88.8 c -1.6,0 -3.2,-1.2 -3.2,-3.2 0,-2 1.2,-3.2 3.2,-3.2 h 88.4 c 1.6,0 3.2,1.2 3.2,3.2 0,2 -1.2,3.2 -2.8,3.2 z"
     id="path3839"
     inkscape:connector-curvature="0" /><path
     style="fill:#586e75;fill-opacity:1;stroke:#586e75;stroke-opacity:1;stroke-width:4.38863646;stroke-miterlimit:4;stroke-dasharray:none"
     d="m 247.329,398.8 h -62.4 c -9.2,0 -16.8,7.6 -16.8,16.8 0,9.2 7.6,16.8 16.8,16.8 h 62.4 c 9.2,0 16.8,-7.6 16.8,-16.8 0,-9.6 -7.6,-16.8 -16.8,-16.8 z m 0,19.6 h -62.4 c -1.6,0 -3.2,-1.2 -3.2,-3.2 0,-2 1.2,-3.2 3.2,-3.2 h 62.4 c 1.6,0 3.2,1.2 3.2,3.2 0,2 -1.6,3.2 -3.2,3.2 z"
     id="path3841"
     inkscape:connector-curvature="0" /></g>
<g
   id="g3859"
   transform="translate(0,79.600006)">
</g>
<g
   id="g3861"
   transform="translate(0,79.600006)">
</g>
<g
   id="g3863"
   transform="translate(0,79.600006)">
</g>
<g
   id="g3865"
   transform="translate(0,79.600006)">
</g>
<g
   id="g3867"
   transform="translate(0,79.600006)">
</g>
<g
   id="g3869"
   transform="translate(0,79.600006)">
</g>
<g
   id="g3871"
   transform="translate(0,79.600006)">
</g>
<g
   id="g3873"
   transform="translate(0,79.600006)">
</g>
<g
   id="g3875"
   transform="translate(0,79.600006)">
</g>
<g
   id="g3877"
   transform="translate(0,79.600006)">
</g>
<g
   id="g3879"
   transform="translate(0,79.600006)">
</g>
<g
   id="g3881"
   transform="translate(0,79.600006)">
</g>
<g
   id="g3883"
   transform="translate(0,79.600006)">
</g>
<g
   id="g3885"
   transform="translate(0,79.600006)">
</g>
<g
   id="g3887"
   transform="translate(0,79.600006)">
</g>
</svg>