<?xml version="1.0" encoding="UTF-8" standalone="no"?>
<!-- Generator: Adobe Illustrator 19.0.0, SVG Export Plug-In . SVG Version: 6.00 Build 0)  -->

<svg
   version="1.1"
   id="Capa_1"
   x="0px"
   y="0px"
   viewBox="0 0 58 58"
   style="enable-background:new 0 0 58 58;"
   xml:space="preserve"
   sodipodi:docname="seek-forward2.svg"
   inkscape:version="1.1.2 (0a00cf5339, 2022-02-04, custom)"
   xmlns:inkscape="http://www.inkscape.org/namespaces/inkscape"
   xmlns:sodipodi="http://sodipodi.sourceforge.net/DTD/sodipodi-0.dtd"
   xmlns="http://www.w3.org/2000/svg"
   xmlns:svg="http://www.w3.org/2000/svg"><defs
   id="defs13"><linearGradient
     id="linearGradient851"
     inkscape:swatch="solid"><stop
       style="stop-color:#839496;stop-opacity:1;"
       offset="0"
       id="stop849" /></linearGradient></defs><sodipodi:namedview
   id="namedview11"
   pagecolor="#ffffff"
   bordercolor="#666666"
   borderopacity="1.0"
   inkscape:pageshadow="2"
   inkscape:pageopacity="0.0"
   inkscape:pagecheckerboard="0"
   showgrid="true"
   inkscape:zoom="15.051724"
   inkscape:cx="29"
   inkscape:cy="28.966781"
   inkscape:window-width="2560"
   inkscape:window-height="1369"
   inkscape:window-x="-8"
   inkscape:window-y="-8"
   inkscape:window-maximized="1"
   inkscape:current-layer="Capa_1"><inkscape:grid
     type="xygrid"
     id="grid925" /></sodipodi:namedview>
<circle
   style="fill:#eee8d5"
   cx="-29"
   cy="29"
   r="29"
   id="circle2"
   transform="scale(-1,1)" />

<path
   fill="#93a1a1"
   d="M 35.557203,15.045023 C 33.592838,15.045023 32,16.832305 32,19.03374 v 19.932518 c 0.0092,3.516407 3.780732,5.298187 6.033412,2.850351 C 42.7388,36.691737 49.786014,29 49.786014,29 c 0,0 -7.047214,-7.696167 -11.746674,-12.821039 -0.664956,-0.724241 -1.554885,-1.130795 -2.482137,-1.133938 z m -17.786014,0 c -1.964367,0 -3.557202,1.787282 -3.557202,3.988717 v 19.932518 c 0.0092,3.516405 3.78073,5.298184 6.03341,2.850351 C 24.952787,36.691737 32,29 32,29 L 20.253326,16.178961 C 19.58837,15.45472 18.698441,15.048166 17.771189,15.045023 Z"
   id="path2"
   style="stroke-width:2.09208"
   sodipodi:nodetypes="csccccccsccccc" /></svg>
