<?xml version="1.0" encoding="UTF-8" standalone="no"?>
<!-- Generator: Adobe Illustrator 19.0.0, SVG Export Plug-In . SVG Version: 6.00 Build 0)  -->

<svg
   version="1.1"
   id="Capa_1"
   x="0px"
   y="0px"
   viewBox="0 0 58 58"
   style="enable-background:new 0 0 58 58;"
   xml:space="preserve"
   sodipodi:docname="seek-forward.svg"
   inkscape:version="1.1.2 (0a00cf5339, 2022-02-04, custom)"
   xmlns:inkscape="http://www.inkscape.org/namespaces/inkscape"
   xmlns:sodipodi="http://sodipodi.sourceforge.net/DTD/sodipodi-0.dtd"
   xmlns="http://www.w3.org/2000/svg"
   xmlns:svg="http://www.w3.org/2000/svg"><defs
   id="defs13" /><sodipodi:namedview
   id="namedview11"
   pagecolor="#ffffff"
   bordercolor="#666666"
   borderopacity="1.0"
   inkscape:pageshadow="2"
   inkscape:pageopacity="0.0"
   inkscape:pagecheckerboard="0"
   showgrid="true"
   inkscape:zoom="15.051724"
   inkscape:cx="29"
   inkscape:cy="28.966781"
   inkscape:window-width="2560"
   inkscape:window-height="1369"
   inkscape:window-x="-8"
   inkscape:window-y="-8"
   inkscape:window-maximized="1"
   inkscape:current-layer="Capa_1"><inkscape:grid
     type="xygrid"
     id="grid925" /></sodipodi:namedview>
<circle
   style="fill:#eee8d5"
   cx="-29"
   cy="29"
   r="29"
   id="circle2"
   transform="scale(-1,1)" />

<path
   fill="#839496"
   d="M 35.952449,20.085734 44.120181,29 35.952449,37.916479 V 20.085734 M 35.557203,15.045023 C 33.592838,15.045023 32,16.832305 32,19.03374 v 19.932518 a 3.5572029,3.9865036 0 0 0 6.033412,2.850351 C 42.7388,36.691737 49.786014,29 49.786014,29 c 0,0 -7.047214,-7.696167 -11.746674,-12.821039 A 3.576965,4.0086507 0 0 0 35.557203,15.045023 Z M 18.166434,20.085734 26.334167,29 18.166434,37.916479 V 20.085734 m -0.395245,-5.040711 c -1.964367,0 -3.557202,1.787282 -3.557202,3.988717 v 19.932518 a 3.5572029,3.9865036 0 0 0 6.03341,2.850351 C 24.952787,36.691737 32,29 32,29 L 20.253326,16.178961 a 3.576965,4.0086507 0 0 0 -2.482137,-1.133938 z"
   id="path2"
   style="stroke-width:2.09208" /></svg>
